<svg xmlns="http://www.w3.org/2000/svg" version="1.1" xmlns:xlink="http://www.w3.org/1999/xlink" xmlns:svgjs="http://svgjs.dev/svgjs" width="400" height="700" preserveAspectRatio="none" viewBox="0 0 400 700"><g mask="url(&quot;#SvgjsMask1744&quot;)" fill="none"><rect width="400" height="700" x="0" y="0" fill="url(&quot;#SvgjsLinearGradient1745&quot;)"></rect><path d="M192.88915240335788 504.4789440461006L102.07064420411743 502.80712127771557 139.34814632418002 572.9159060769213z" fill="rgba(28, 83, 142, 0.4)" class="triangle-float3"></path><path d="M154.23195207292628 461.75257818102057L79.97594208296528 502.9133566432232 195.3927305351289 536.0085881709815z" fill="rgba(28, 83, 142, 0.4)" class="triangle-float3"></path><path d="M392.638,747.278C416.743,746.739,436.243,728.611,446.704,706.888C455.87,687.855,451.362,666.156,440.401,648.097C429.917,630.824,412.842,617.55,392.638,617.808C372.815,618.061,357.605,632.578,346.944,649.292C335.139,667.8,324.937,689.508,334.215,709.403C344.728,731.947,367.769,747.834,392.638,747.278" fill="rgba(28, 83, 142, 0.4)" class="triangle-float1"></path><path d="M228.77739161219273 260.7041534771701L263.79352418231736 210.69593354332895 213.7853042484762 175.6798009732043 178.76917167835157 225.68802090704548z" fill="rgba(28, 83, 142, 0.4)" class="triangle-float2"></path><path d="M-29.03876461780412 655.9018404386519L-8.69722211049805 744.0107410547737 79.41167850562368 723.6691985474675 59.07013599831761 635.5602979313459z" fill="rgba(28, 83, 142, 0.4)" class="triangle-float2"></path><path d="M-48.12 500.04 a74.48 74.48 0 1 0 148.96 0 a74.48 74.48 0 1 0 -148.96 0z" fill="rgba(28, 83, 142, 0.4)" class="triangle-float2"></path><path d="M276.4697122989818 312.14992657173167L208.17141491341496 339.74422989538937 235.7657182370727 408.0425272809562 304.0640156226395 380.4482239572985z" fill="rgba(28, 83, 142, 0.4)" class="triangle-float3"></path><path d="M58.54,477.268C71.238,477.974,85.849,477.328,92.46,466.463C99.228,455.34,94.141,441.338,87.041,430.424C80.664,420.622,70.234,414.221,58.54,414.327C47.026,414.431,36.651,420.946,30.917,430.931C25.207,440.874,24.705,453.176,30.576,463.025C36.317,472.656,47.345,476.646,58.54,477.268" fill="rgba(28, 83, 142, 0.4)" class="triangle-float3"></path><path d="M164.685,299.793C193.425,301.244,226.234,301.78,242.179,277.824C259.311,252.085,253.657,217.368,236.798,191.449C221.368,167.728,192.958,157.501,164.685,158.685C138.545,159.779,115.466,174.456,102.324,197.079C89.116,219.815,86.007,248.154,99.653,270.63C112.868,292.396,139.254,298.509,164.685,299.793" fill="rgba(28, 83, 142, 0.4)" class="triangle-float2"></path><path d="M171.80903630236602-66.55107504490371L107.79342910055982 9.739754819948615 184.08425896541215 73.75536202175482 248.09986616721835-2.535467843097507z" fill="rgba(28, 83, 142, 0.4)" class="triangle-float1"></path><path d="M429.711,805.678C469.463,805.377,500.672,775.209,519.79,740.355C538.082,707.006,542.36,667.223,523.893,633.971C504.903,599.777,468.817,578.887,429.711,578.155C389.265,577.398,349.124,595.111,329.216,630.327C309.578,665.066,317.394,707.114,337.237,741.737C357.209,776.586,389.546,805.982,429.711,805.678" fill="rgba(28, 83, 142, 0.4)" class="triangle-float3"></path></g><defs><mask id="SvgjsMask1744"><rect width="400" height="700" fill="#ffffff"></rect></mask><linearGradient x1="-18.75%" y1="10.71%" x2="118.75%" y2="89.29%" gradientUnits="userSpaceOnUse" id="SvgjsLinearGradient1745"><stop stop-color="rgba(14, 42, 71, 1)" offset="0"></stop><stop stop-color="rgba(118, 178, 255, 1)" offset="0.74"></stop></linearGradient><style>
                @keyframes float1 {
                    0%{transform: translate(0, 0)}
                    50%{transform: translate(-10px, 0)}
                    100%{transform: translate(0, 0)}
                }

                .triangle-float1 {
                    animation: float1 5s infinite;
                }

                @keyframes float2 {
                    0%{transform: translate(0, 0)}
                    50%{transform: translate(-5px, -5px)}
                    100%{transform: translate(0, 0)}
                }

                .triangle-float2 {
                    animation: float2 4s infinite;
                }

                @keyframes float3 {
                    0%{transform: translate(0, 0)}
                    50%{transform: translate(0, -10px)}
                    100%{transform: translate(0, 0)}
                }

                .triangle-float3 {
                    animation: float3 6s infinite;
                }
            </style></defs></svg>