<svg xmlns="http://www.w3.org/2000/svg" version="1.1" xmlns:xlink="http://www.w3.org/1999/xlink" xmlns:svgjs="http://svgjs.dev/svgjs" width="440" height="1000" preserveAspectRatio="none" viewBox="0 0 440 1000"><g mask="url(&quot;#SvgjsMask1022&quot;)" fill="none"><rect width="440" height="1000" x="0" y="0" fill="rgba(15, 100, 141, 1)"></rect><path d="M-76.49 671.94L-76.49 671.94" stroke="rgba(4, 162, 214, 1)" stroke-width="1.5"></path><path d="M-76.49 671.94L50.05 673.09" stroke="rgba(4, 162, 214, 1)" stroke-width="1.5"></path><path d="M-76.49 671.94L-55.52 800.03" stroke="rgba(4, 162, 214, 1)" stroke-width="1.5"></path><path d="M-76.49 671.94L89.86 815.95" stroke="rgba(4, 162, 214, 1)" stroke-width="1.5"></path><path d="M-76.49 671.94L162.35 705.19" stroke="rgba(4, 162, 214, 1)" stroke-width="1.5"></path><path d="M-76.49 671.94L173.53 565.92" stroke="rgba(4, 162, 214, 1)" stroke-width="1.5"></path><path d="M-55.52 800.03L-55.52 800.03" stroke="rgba(4, 162, 214, 1)" stroke-width="1.5"></path><path d="M-55.52 800.03L89.86 815.95" stroke="rgba(4, 162, 214, 1)" stroke-width="1.5"></path><path d="M-55.52 800.03L50.05 673.09" stroke="rgba(4, 162, 214, 1)" stroke-width="1.5"></path><path d="M-55.52 800.03L-48.86 965.06" stroke="rgba(4, 162, 214, 1)" stroke-width="1.5"></path><path d="M-48.86 965.06L-48.86 965.06" stroke="rgba(4, 162, 214, 1)" stroke-width="1.5"></path><path d="M-48.86 965.06L-63.33 1072.98" stroke="rgba(4, 162, 214, 1)" stroke-width="1.5"></path><path d="M-48.86 965.06L48.47 1065.86" stroke="rgba(4, 162, 214, 1)" stroke-width="1.5"></path><path d="M-48.86 965.06L89.67 936.99" stroke="rgba(4, 162, 214, 1)" stroke-width="1.5"></path><path d="M-48.86 965.06L89.86 815.95" stroke="rgba(4, 162, 214, 1)" stroke-width="1.5"></path><path d="M-63.33 1072.98L-63.33 1072.98" stroke="rgba(4, 162, 214, 1)" stroke-width="1.5"></path><path d="M-63.33 1072.98L48.47 1065.86" stroke="rgba(4, 162, 214, 1)" stroke-width="1.5"></path><path d="M-63.33 1072.98L89.67 936.99" stroke="rgba(4, 162, 214, 1)" stroke-width="1.5"></path><path d="M50.05 673.09L50.05 673.09" stroke="rgba(4, 162, 214, 1)" stroke-width="1.5"></path><path d="M50.05 673.09L162.35 705.19" stroke="rgba(4, 162, 214, 1)" stroke-width="1.5"></path><path d="M50.05 673.09L89.86 815.95" stroke="rgba(4, 162, 214, 1)" stroke-width="1.5"></path><path d="M50.05 673.09L173.53 565.92" stroke="rgba(4, 162, 214, 1)" stroke-width="1.5"></path><path d="M89.86 815.95L89.86 815.95" stroke="rgba(4, 162, 214, 1)" stroke-width="1.5"></path><path d="M89.86 815.95L172.63 842.77" stroke="rgba(4, 162, 214, 1)" stroke-width="1.5"></path><path d="M89.86 815.95L89.67 936.99" stroke="rgba(4, 162, 214, 1)" stroke-width="1.5"></path><path d="M89.86 815.95L160.61 917.35" stroke="rgba(4, 162, 214, 1)" stroke-width="1.5"></path><path d="M89.86 815.95L162.35 705.19" stroke="rgba(4, 162, 214, 1)" stroke-width="1.5"></path><path d="M89.67 936.99L89.67 936.99" stroke="rgba(4, 162, 214, 1)" stroke-width="1.5"></path><path d="M89.67 936.99L160.61 917.35" stroke="rgba(4, 162, 214, 1)" stroke-width="1.5"></path><path d="M89.67 936.99L172.63 842.77" stroke="rgba(4, 162, 214, 1)" stroke-width="1.5"></path><path d="M89.67 936.99L48.47 1065.86" stroke="rgba(4, 162, 214, 1)" stroke-width="1.5"></path><path d="M89.67 936.99L179.59 1055.84" stroke="rgba(4, 162, 214, 1)" stroke-width="1.5"></path><path d="M48.47 1065.86L48.47 1065.86" stroke="rgba(4, 162, 214, 1)" stroke-width="1.5"></path><path d="M48.47 1065.86L179.59 1055.84" stroke="rgba(4, 162, 214, 1)" stroke-width="1.5"></path><path d="M182.66 450.65L182.66 450.65" stroke="rgba(4, 162, 214, 1)" stroke-width="1.5"></path><path d="M182.66 450.65L173.53 565.92" stroke="rgba(4, 162, 214, 1)" stroke-width="1.5"></path><path d="M182.66 450.65L286.11 317.95" stroke="rgba(4, 162, 214, 1)" stroke-width="1.5"></path><path d="M182.66 450.65L318.86 555.36" stroke="rgba(4, 162, 214, 1)" stroke-width="1.5"></path><path d="M182.66 450.65L162.35 705.19" stroke="rgba(4, 162, 214, 1)" stroke-width="1.5"></path><path d="M173.53 565.92L173.53 565.92" stroke="rgba(4, 162, 214, 1)" stroke-width="1.5"></path><path d="M173.53 565.92L162.35 705.19" stroke="rgba(4, 162, 214, 1)" stroke-width="1.5"></path><path d="M162.35 705.19L162.35 705.19" stroke="rgba(4, 162, 214, 1)" stroke-width="1.5"></path><path d="M162.35 705.19L172.63 842.77" stroke="rgba(4, 162, 214, 1)" stroke-width="1.5"></path><path d="M162.35 705.19L321.2 689.98" stroke="rgba(4, 162, 214, 1)" stroke-width="1.5"></path><path d="M172.63 842.77L172.63 842.77" stroke="rgba(4, 162, 214, 1)" stroke-width="1.5"></path><path d="M172.63 842.77L160.61 917.35" stroke="rgba(4, 162, 214, 1)" stroke-width="1.5"></path><path d="M160.61 917.35L160.61 917.35" stroke="rgba(4, 162, 214, 1)" stroke-width="1.5"></path><path d="M179.59 1055.84L179.59 1055.84" stroke="rgba(4, 162, 214, 1)" stroke-width="1.5"></path><path d="M179.59 1055.84L304.61 1038.14" stroke="rgba(4, 162, 214, 1)" stroke-width="1.5"></path><path d="M323.5 -76.58L323.5 -76.58" stroke="rgba(4, 162, 214, 1)" stroke-width="1.5"></path><path d="M323.5 -76.58L457.99 -84.52" stroke="rgba(4, 162, 214, 1)" stroke-width="1.5"></path><path d="M338.23 89L338.23 89" stroke="rgba(4, 162, 214, 1)" stroke-width="1.5"></path><path d="M338.23 89L421.03 39.36" stroke="rgba(4, 162, 214, 1)" stroke-width="1.5"></path><path d="M338.23 89L442.49 161.75" stroke="rgba(4, 162, 214, 1)" stroke-width="1.5"></path><path d="M338.23 89L323.5 -76.58" stroke="rgba(4, 162, 214, 1)" stroke-width="1.5"></path><path d="M286.11 317.95L286.11 317.95" stroke="rgba(4, 162, 214, 1)" stroke-width="1.5"></path><path d="M286.11 317.95L452.02 291.46" stroke="rgba(4, 162, 214, 1)" stroke-width="1.5"></path><path d="M286.11 317.95L439.46 435.53" stroke="rgba(4, 162, 214, 1)" stroke-width="1.5"></path><path d="M286.11 317.95L442.49 161.75" stroke="rgba(4, 162, 214, 1)" stroke-width="1.5"></path><path d="M318.86 555.36L318.86 555.36" stroke="rgba(4, 162, 214, 1)" stroke-width="1.5"></path><path d="M318.86 555.36L411.27 571.88" stroke="rgba(4, 162, 214, 1)" stroke-width="1.5"></path><path d="M318.86 555.36L321.2 689.98" stroke="rgba(4, 162, 214, 1)" stroke-width="1.5"></path><path d="M318.86 555.36L173.53 565.92" stroke="rgba(4, 162, 214, 1)" stroke-width="1.5"></path><path d="M318.86 555.36L439.46 435.53" stroke="rgba(4, 162, 214, 1)" stroke-width="1.5"></path><path d="M321.2 689.98L321.2 689.98" stroke="rgba(4, 162, 214, 1)" stroke-width="1.5"></path><path d="M321.2 689.98L300.57 811.92" stroke="rgba(4, 162, 214, 1)" stroke-width="1.5"></path><path d="M321.2 689.98L418.84 783.2" stroke="rgba(4, 162, 214, 1)" stroke-width="1.5"></path><path d="M300.57 811.92L300.57 811.92" stroke="rgba(4, 162, 214, 1)" stroke-width="1.5"></path><path d="M300.57 811.92L418.84 783.2" stroke="rgba(4, 162, 214, 1)" stroke-width="1.5"></path><path d="M286.17 959.06L286.17 959.06" stroke="rgba(4, 162, 214, 1)" stroke-width="1.5"></path><path d="M286.17 959.06L304.61 1038.14" stroke="rgba(4, 162, 214, 1)" stroke-width="1.5"></path><path d="M286.17 959.06L160.61 917.35" stroke="rgba(4, 162, 214, 1)" stroke-width="1.5"></path><path d="M304.61 1038.14L304.61 1038.14" stroke="rgba(4, 162, 214, 1)" stroke-width="1.5"></path><path d="M304.61 1038.14L424.14 1078.54" stroke="rgba(4, 162, 214, 1)" stroke-width="1.5"></path><path d="M304.61 1038.14L444.24 924.34" stroke="rgba(4, 162, 214, 1)" stroke-width="1.5"></path><path d="M457.99 -84.52L457.99 -84.52" stroke="rgba(4, 162, 214, 1)" stroke-width="1.5"></path><path d="M457.99 -84.52L553.44 -79.55" stroke="rgba(4, 162, 214, 1)" stroke-width="1.5"></path><path d="M457.99 -84.52L421.03 39.36" stroke="rgba(4, 162, 214, 1)" stroke-width="1.5"></path><path d="M457.99 -84.52L566.44 49.15" stroke="rgba(4, 162, 214, 1)" stroke-width="1.5"></path><path d="M421.03 39.36L421.03 39.36" stroke="rgba(4, 162, 214, 1)" stroke-width="1.5"></path><path d="M421.03 39.36L442.49 161.75" stroke="rgba(4, 162, 214, 1)" stroke-width="1.5"></path><path d="M421.03 39.36L566.44 49.15" stroke="rgba(4, 162, 214, 1)" stroke-width="1.5"></path><path d="M442.49 161.75L442.49 161.75" stroke="rgba(4, 162, 214, 1)" stroke-width="1.5"></path><path d="M442.49 161.75L452.02 291.46" stroke="rgba(4, 162, 214, 1)" stroke-width="1.5"></path><path d="M442.49 161.75L573.48 210.12" stroke="rgba(4, 162, 214, 1)" stroke-width="1.5"></path><path d="M442.49 161.75L542.02 285.62" stroke="rgba(4, 162, 214, 1)" stroke-width="1.5"></path><path d="M452.02 291.46L452.02 291.46" stroke="rgba(4, 162, 214, 1)" stroke-width="1.5"></path><path d="M452.02 291.46L542.02 285.62" stroke="rgba(4, 162, 214, 1)" stroke-width="1.5"></path><path d="M452.02 291.46L439.46 435.53" stroke="rgba(4, 162, 214, 1)" stroke-width="1.5"></path><path d="M452.02 291.46L573.48 210.12" stroke="rgba(4, 162, 214, 1)" stroke-width="1.5"></path><path d="M452.02 291.46L559.95 453.38" stroke="rgba(4, 162, 214, 1)" stroke-width="1.5"></path><path d="M439.46 435.53L439.46 435.53" stroke="rgba(4, 162, 214, 1)" stroke-width="1.5"></path><path d="M439.46 435.53L559.95 453.38" stroke="rgba(4, 162, 214, 1)" stroke-width="1.5"></path><path d="M439.46 435.53L411.27 571.88" stroke="rgba(4, 162, 214, 1)" stroke-width="1.5"></path><path d="M439.46 435.53L574.45 535.81" stroke="rgba(4, 162, 214, 1)" stroke-width="1.5"></path><path d="M411.27 571.88L411.27 571.88" stroke="rgba(4, 162, 214, 1)" stroke-width="1.5"></path><path d="M411.27 571.88L321.2 689.98" stroke="rgba(4, 162, 214, 1)" stroke-width="1.5"></path><path d="M411.27 571.88L574.45 535.81" stroke="rgba(4, 162, 214, 1)" stroke-width="1.5"></path><path d="M418.84 783.2L418.84 783.2" stroke="rgba(4, 162, 214, 1)" stroke-width="1.5"></path><path d="M444.24 924.34L444.24 924.34" stroke="rgba(4, 162, 214, 1)" stroke-width="1.5"></path><path d="M444.24 924.34L553.92 834.37" stroke="rgba(4, 162, 214, 1)" stroke-width="1.5"></path><path d="M444.24 924.34L418.84 783.2" stroke="rgba(4, 162, 214, 1)" stroke-width="1.5"></path><path d="M424.14 1078.54L424.14 1078.54" stroke="rgba(4, 162, 214, 1)" stroke-width="1.5"></path><path d="M424.14 1078.54L566.59 1064.81" stroke="rgba(4, 162, 214, 1)" stroke-width="1.5"></path><path d="M424.14 1078.54L444.24 924.34" stroke="rgba(4, 162, 214, 1)" stroke-width="1.5"></path><path d="M424.14 1078.54L286.17 959.06" stroke="rgba(4, 162, 214, 1)" stroke-width="1.5"></path><path d="M424.14 1078.54L179.59 1055.84" stroke="rgba(4, 162, 214, 1)" stroke-width="1.5"></path><path d="M553.44 -79.55L553.44 -79.55" stroke="rgba(4, 162, 214, 1)" stroke-width="1.5"></path><path d="M553.44 -79.55L566.44 49.15" stroke="rgba(4, 162, 214, 1)" stroke-width="1.5"></path><path d="M553.44 -79.55L421.03 39.36" stroke="rgba(4, 162, 214, 1)" stroke-width="1.5"></path><path d="M553.44 -79.55L323.5 -76.58" stroke="rgba(4, 162, 214, 1)" stroke-width="1.5"></path><path d="M553.44 -79.55L442.49 161.75" stroke="rgba(4, 162, 214, 1)" stroke-width="1.5"></path><path d="M553.44 -79.55L338.23 89" stroke="rgba(4, 162, 214, 1)" stroke-width="1.5"></path><path d="M566.44 49.15L566.44 49.15" stroke="rgba(4, 162, 214, 1)" stroke-width="1.5"></path><path d="M566.44 49.15L573.48 210.12" stroke="rgba(4, 162, 214, 1)" stroke-width="1.5"></path><path d="M566.44 49.15L442.49 161.75" stroke="rgba(4, 162, 214, 1)" stroke-width="1.5"></path><path d="M573.48 210.12L573.48 210.12" stroke="rgba(4, 162, 214, 1)" stroke-width="1.5"></path><path d="M573.48 210.12L542.02 285.62" stroke="rgba(4, 162, 214, 1)" stroke-width="1.5"></path><path d="M542.02 285.62L542.02 285.62" stroke="rgba(4, 162, 214, 1)" stroke-width="1.5"></path><path d="M559.95 453.38L559.95 453.38" stroke="rgba(4, 162, 214, 1)" stroke-width="1.5"></path><path d="M559.95 453.38L574.45 535.81" stroke="rgba(4, 162, 214, 1)" stroke-width="1.5"></path><path d="M574.45 535.81L574.45 535.81" stroke="rgba(4, 162, 214, 1)" stroke-width="1.5"></path><path d="M574.45 535.81L541.86 694.26" stroke="rgba(4, 162, 214, 1)" stroke-width="1.5"></path><path d="M574.45 535.81L542.02 285.62" stroke="rgba(4, 162, 214, 1)" stroke-width="1.5"></path><path d="M574.45 535.81L318.86 555.36" stroke="rgba(4, 162, 214, 1)" stroke-width="1.5"></path><path d="M541.86 694.26L541.86 694.26" stroke="rgba(4, 162, 214, 1)" stroke-width="1.5"></path><path d="M541.86 694.26L553.92 834.37" stroke="rgba(4, 162, 214, 1)" stroke-width="1.5"></path><path d="M541.86 694.26L418.84 783.2" stroke="rgba(4, 162, 214, 1)" stroke-width="1.5"></path><path d="M541.86 694.26L411.27 571.88" stroke="rgba(4, 162, 214, 1)" stroke-width="1.5"></path><path d="M553.92 834.37L553.92 834.37" stroke="rgba(4, 162, 214, 1)" stroke-width="1.5"></path><path d="M553.92 834.37L418.84 783.2" stroke="rgba(4, 162, 214, 1)" stroke-width="1.5"></path><path d="M553.92 834.37L566.59 1064.81" stroke="rgba(4, 162, 214, 1)" stroke-width="1.5"></path><path d="M566.59 1064.81L566.59 1064.81" stroke="rgba(4, 162, 214, 1)" stroke-width="1.5"></path><path d="M566.59 1064.81L444.24 924.34" stroke="rgba(4, 162, 214, 1)" stroke-width="1.5"></path><path d="M566.59 1064.81L304.61 1038.14" stroke="rgba(4, 162, 214, 1)" stroke-width="1.5"></path><path d="M566.59 1064.81L286.17 959.06" stroke="rgba(4, 162, 214, 1)" stroke-width="1.5"></path><circle r="5" cx="-76.49" cy="671.94" fill="rgba(4, 162, 214, 1)"></circle><circle r="5" cx="-55.52" cy="800.03" fill="rgba(4, 162, 214, 1)"></circle><circle r="5" cx="-48.86" cy="965.06" fill="rgba(4, 162, 214, 1)"></circle><circle r="5" cx="-63.33" cy="1072.98" fill="rgba(4, 162, 214, 1)"></circle><circle r="5" cx="50.05" cy="673.09" fill="rgba(4, 162, 214, 1)"></circle><circle r="5" cx="89.86" cy="815.95" fill="rgba(4, 162, 214, 1)"></circle><circle r="5" cx="89.67" cy="936.99" fill="rgba(4, 162, 214, 1)"></circle><circle r="5" cx="48.47" cy="1065.86" fill="rgba(4, 162, 214, 1)"></circle><circle r="5" cx="182.66" cy="450.65" fill="rgba(4, 162, 214, 1)"></circle><circle r="5" cx="173.53" cy="565.92" fill="rgba(4, 162, 214, 1)"></circle><circle r="5" cx="162.35" cy="705.19" fill="rgba(4, 162, 214, 1)"></circle><circle r="5" cx="172.63" cy="842.77" fill="rgba(4, 162, 214, 1)"></circle><circle r="5" cx="160.61" cy="917.35" fill="rgba(4, 162, 214, 1)"></circle><circle r="5" cx="179.59" cy="1055.84" fill="rgba(4, 162, 214, 1)"></circle><circle r="5" cx="323.5" cy="-76.58" fill="rgba(4, 162, 214, 1)"></circle><circle r="5" cx="338.23" cy="89" fill="rgba(4, 162, 214, 1)"></circle><circle r="5" cx="286.11" cy="317.95" fill="rgba(4, 162, 214, 1)"></circle><circle r="5" cx="318.86" cy="555.36" fill="rgba(4, 162, 214, 1)"></circle><circle r="5" cx="321.2" cy="689.98" fill="rgba(4, 162, 214, 1)"></circle><circle r="5" cx="300.57" cy="811.92" fill="rgba(4, 162, 214, 1)"></circle><circle r="5" cx="286.17" cy="959.06" fill="rgba(4, 162, 214, 1)"></circle><circle r="5" cx="304.61" cy="1038.14" fill="rgba(4, 162, 214, 1)"></circle><circle r="5" cx="457.99" cy="-84.52" fill="rgba(4, 162, 214, 1)"></circle><circle r="5" cx="421.03" cy="39.36" fill="rgba(4, 162, 214, 1)"></circle><circle r="5" cx="442.49" cy="161.75" fill="rgba(4, 162, 214, 1)"></circle><circle r="5" cx="452.02" cy="291.46" fill="rgba(4, 162, 214, 1)"></circle><circle r="5" cx="439.46" cy="435.53" fill="rgba(4, 162, 214, 1)"></circle><circle r="5" cx="411.27" cy="571.88" fill="rgba(4, 162, 214, 1)"></circle><circle r="5" cx="418.84" cy="783.2" fill="rgba(4, 162, 214, 1)"></circle><circle r="5" cx="444.24" cy="924.34" fill="rgba(4, 162, 214, 1)"></circle><circle r="5" cx="424.14" cy="1078.54" fill="rgba(4, 162, 214, 1)"></circle><circle r="5" cx="553.44" cy="-79.55" fill="rgba(4, 162, 214, 1)"></circle><circle r="5" cx="566.44" cy="49.15" fill="rgba(4, 162, 214, 1)"></circle><circle r="5" cx="573.48" cy="210.12" fill="rgba(4, 162, 214, 1)"></circle><circle r="5" cx="542.02" cy="285.62" fill="rgba(4, 162, 214, 1)"></circle><circle r="5" cx="559.95" cy="453.38" fill="rgba(4, 162, 214, 1)"></circle><circle r="5" cx="574.45" cy="535.81" fill="rgba(4, 162, 214, 1)"></circle><circle r="5" cx="541.86" cy="694.26" fill="rgba(4, 162, 214, 1)"></circle><circle r="5" cx="553.92" cy="834.37" fill="rgba(4, 162, 214, 1)"></circle><circle r="5" cx="566.59" cy="1064.81" fill="rgba(4, 162, 214, 1)"></circle><path d="M-60.75 943.13L-60.75 943.13" stroke="hsl(194.89999999999998, 96.3%, 55.6%)" stroke-width="1.5"></path><path d="M-60.75 943.13L-43.51 833.72" stroke="hsl(194.89999999999998, 96.3%, 55.6%)" stroke-width="1.5"></path><path d="M-60.75 943.13L-77.6 1089.65" stroke="hsl(194.89999999999998, 96.3%, 55.6%)" stroke-width="1.5"></path><path d="M-60.75 943.13L89.74 939" stroke="hsl(194.89999999999998, 96.3%, 55.6%)" stroke-width="1.5"></path><path d="M-60.75 943.13L54.58 803.33" stroke="hsl(194.89999999999998, 96.3%, 55.6%)" stroke-width="1.5"></path><path d="M195.8 832.4L195.8 832.4" stroke="hsl(194.89999999999998, 96.3%, 55.6%)" stroke-width="1.5"></path><path d="M195.8 832.4L207.39 950.58" stroke="hsl(194.89999999999998, 96.3%, 55.6%)" stroke-width="1.5"></path><path d="M195.8 832.4L318.64 815.46" stroke="hsl(194.89999999999998, 96.3%, 55.6%)" stroke-width="1.5"></path><path d="M445.32 160.34L445.32 160.34" stroke="hsl(194.89999999999998, 96.3%, 55.6%)" stroke-width="1.5"></path><path d="M445.32 160.34L410.33 31.95" stroke="hsl(194.89999999999998, 96.3%, 55.6%)" stroke-width="1.5"></path><path d="M445.32 160.34L453.6 315.29" stroke="hsl(194.89999999999998, 96.3%, 55.6%)" stroke-width="1.5"></path><path d="M445.32 160.34L573.99 59.06" stroke="hsl(194.89999999999998, 96.3%, 55.6%)" stroke-width="1.5"></path><path d="M445.32 160.34L586.24 302.28" stroke="hsl(194.89999999999998, 96.3%, 55.6%)" stroke-width="1.5"></path><path d="M445.32 160.34L463.9 -43.79" stroke="hsl(194.89999999999998, 96.3%, 55.6%)" stroke-width="1.5"></path><path d="M-43.51 833.72L-43.51 833.72" stroke="hsl(194.89999999999998, 96.3%, 55.6%)" stroke-width="1.5"></path><path d="M-43.51 833.72L54.58 803.33" stroke="hsl(194.89999999999998, 96.3%, 55.6%)" stroke-width="1.5"></path><path d="M-77.6 1089.65L-77.6 1089.65" stroke="hsl(194.89999999999998, 96.3%, 55.6%)" stroke-width="1.5"></path><path d="M-77.6 1089.65L70.33 1073.57" stroke="hsl(194.89999999999998, 96.3%, 55.6%)" stroke-width="1.5"></path><path d="M54.58 803.33L54.58 803.33" stroke="hsl(194.89999999999998, 96.3%, 55.6%)" stroke-width="1.5"></path><path d="M54.58 803.33L89.74 939" stroke="hsl(194.89999999999998, 96.3%, 55.6%)" stroke-width="1.5"></path><path d="M89.74 939L89.74 939" stroke="hsl(194.89999999999998, 96.3%, 55.6%)" stroke-width="1.5"></path><path d="M89.74 939L207.39 950.58" stroke="hsl(194.89999999999998, 96.3%, 55.6%)" stroke-width="1.5"></path><path d="M89.74 939L70.33 1073.57" stroke="hsl(194.89999999999998, 96.3%, 55.6%)" stroke-width="1.5"></path><path d="M89.74 939L195.8 832.4" stroke="hsl(194.89999999999998, 96.3%, 55.6%)" stroke-width="1.5"></path><path d="M89.74 939L-43.51 833.72" stroke="hsl(194.89999999999998, 96.3%, 55.6%)" stroke-width="1.5"></path><path d="M70.33 1073.57L70.33 1073.57" stroke="hsl(194.89999999999998, 96.3%, 55.6%)" stroke-width="1.5"></path><path d="M70.33 1073.57L207.39 950.58" stroke="hsl(194.89999999999998, 96.3%, 55.6%)" stroke-width="1.5"></path><path d="M193.82 684.75L193.82 684.75" stroke="hsl(194.89999999999998, 96.3%, 55.6%)" stroke-width="1.5"></path><path d="M193.82 684.75L303.01 690.72" stroke="hsl(194.89999999999998, 96.3%, 55.6%)" stroke-width="1.5"></path><path d="M193.82 684.75L195.8 832.4" stroke="hsl(194.89999999999998, 96.3%, 55.6%)" stroke-width="1.5"></path><path d="M193.82 684.75L318.64 815.46" stroke="hsl(194.89999999999998, 96.3%, 55.6%)" stroke-width="1.5"></path><path d="M193.82 684.75L306.07 542.88" stroke="hsl(194.89999999999998, 96.3%, 55.6%)" stroke-width="1.5"></path><path d="M193.82 684.75L54.58 803.33" stroke="hsl(194.89999999999998, 96.3%, 55.6%)" stroke-width="1.5"></path><path d="M193.82 684.75L430.48 710.18" stroke="hsl(194.89999999999998, 96.3%, 55.6%)" stroke-width="1.5"></path><path d="M207.39 950.58L207.39 950.58" stroke="hsl(194.89999999999998, 96.3%, 55.6%)" stroke-width="1.5"></path><path d="M328.11 340.85L328.11 340.85" stroke="hsl(194.89999999999998, 96.3%, 55.6%)" stroke-width="1.5"></path><path d="M328.11 340.85L410.38 432.79" stroke="hsl(194.89999999999998, 96.3%, 55.6%)" stroke-width="1.5"></path><path d="M328.11 340.85L453.6 315.29" stroke="hsl(194.89999999999998, 96.3%, 55.6%)" stroke-width="1.5"></path><path d="M306.07 542.88L306.07 542.88" stroke="hsl(194.89999999999998, 96.3%, 55.6%)" stroke-width="1.5"></path><path d="M306.07 542.88L303.01 690.72" stroke="hsl(194.89999999999998, 96.3%, 55.6%)" stroke-width="1.5"></path><path d="M306.07 542.88L453.83 559.45" stroke="hsl(194.89999999999998, 96.3%, 55.6%)" stroke-width="1.5"></path><path d="M306.07 542.88L410.38 432.79" stroke="hsl(194.89999999999998, 96.3%, 55.6%)" stroke-width="1.5"></path><path d="M306.07 542.88L328.11 340.85" stroke="hsl(194.89999999999998, 96.3%, 55.6%)" stroke-width="1.5"></path><path d="M306.07 542.88L430.48 710.18" stroke="hsl(194.89999999999998, 96.3%, 55.6%)" stroke-width="1.5"></path><path d="M303.01 690.72L303.01 690.72" stroke="hsl(194.89999999999998, 96.3%, 55.6%)" stroke-width="1.5"></path><path d="M303.01 690.72L318.64 815.46" stroke="hsl(194.89999999999998, 96.3%, 55.6%)" stroke-width="1.5"></path><path d="M318.64 815.46L318.64 815.46" stroke="hsl(194.89999999999998, 96.3%, 55.6%)" stroke-width="1.5"></path><path d="M318.64 815.46L457.66 808.74" stroke="hsl(194.89999999999998, 96.3%, 55.6%)" stroke-width="1.5"></path><path d="M318.64 815.46L430.48 710.18" stroke="hsl(194.89999999999998, 96.3%, 55.6%)" stroke-width="1.5"></path><path d="M306.4 1057.35L306.4 1057.35" stroke="hsl(194.89999999999998, 96.3%, 55.6%)" stroke-width="1.5"></path><path d="M306.4 1057.35L207.39 950.58" stroke="hsl(194.89999999999998, 96.3%, 55.6%)" stroke-width="1.5"></path><path d="M306.4 1057.35L455.36 1071.78" stroke="hsl(194.89999999999998, 96.3%, 55.6%)" stroke-width="1.5"></path><path d="M306.4 1057.35L427.55 929.81" stroke="hsl(194.89999999999998, 96.3%, 55.6%)" stroke-width="1.5"></path><path d="M463.9 -43.79L463.9 -43.79" stroke="hsl(194.89999999999998, 96.3%, 55.6%)" stroke-width="1.5"></path><path d="M463.9 -43.79L540.47 -71.65" stroke="hsl(194.89999999999998, 96.3%, 55.6%)" stroke-width="1.5"></path><path d="M463.9 -43.79L410.33 31.95" stroke="hsl(194.89999999999998, 96.3%, 55.6%)" stroke-width="1.5"></path><path d="M410.33 31.95L410.33 31.95" stroke="hsl(194.89999999999998, 96.3%, 55.6%)" stroke-width="1.5"></path><path d="M453.6 315.29L453.6 315.29" stroke="hsl(194.89999999999998, 96.3%, 55.6%)" stroke-width="1.5"></path><path d="M453.6 315.29L410.38 432.79" stroke="hsl(194.89999999999998, 96.3%, 55.6%)" stroke-width="1.5"></path><path d="M453.6 315.29L586.24 302.28" stroke="hsl(194.89999999999998, 96.3%, 55.6%)" stroke-width="1.5"></path><path d="M453.6 315.29L587.06 437.76" stroke="hsl(194.89999999999998, 96.3%, 55.6%)" stroke-width="1.5"></path><path d="M410.38 432.79L410.38 432.79" stroke="hsl(194.89999999999998, 96.3%, 55.6%)" stroke-width="1.5"></path><path d="M453.83 559.45L453.83 559.45" stroke="hsl(194.89999999999998, 96.3%, 55.6%)" stroke-width="1.5"></path><path d="M453.83 559.45L547.26 571.97" stroke="hsl(194.89999999999998, 96.3%, 55.6%)" stroke-width="1.5"></path><path d="M453.83 559.45L410.38 432.79" stroke="hsl(194.89999999999998, 96.3%, 55.6%)" stroke-width="1.5"></path><path d="M453.83 559.45L430.48 710.18" stroke="hsl(194.89999999999998, 96.3%, 55.6%)" stroke-width="1.5"></path><path d="M453.83 559.45L539.17 691.97" stroke="hsl(194.89999999999998, 96.3%, 55.6%)" stroke-width="1.5"></path><path d="M453.83 559.45L587.06 437.76" stroke="hsl(194.89999999999998, 96.3%, 55.6%)" stroke-width="1.5"></path><path d="M430.48 710.18L430.48 710.18" stroke="hsl(194.89999999999998, 96.3%, 55.6%)" stroke-width="1.5"></path><path d="M430.48 710.18L457.66 808.74" stroke="hsl(194.89999999999998, 96.3%, 55.6%)" stroke-width="1.5"></path><path d="M430.48 710.18L539.17 691.97" stroke="hsl(194.89999999999998, 96.3%, 55.6%)" stroke-width="1.5"></path><path d="M430.48 710.18L303.01 690.72" stroke="hsl(194.89999999999998, 96.3%, 55.6%)" stroke-width="1.5"></path><path d="M457.66 808.74L457.66 808.74" stroke="hsl(194.89999999999998, 96.3%, 55.6%)" stroke-width="1.5"></path><path d="M457.66 808.74L427.55 929.81" stroke="hsl(194.89999999999998, 96.3%, 55.6%)" stroke-width="1.5"></path><path d="M457.66 808.74L581.75 842.68" stroke="hsl(194.89999999999998, 96.3%, 55.6%)" stroke-width="1.5"></path><path d="M457.66 808.74L539.17 691.97" stroke="hsl(194.89999999999998, 96.3%, 55.6%)" stroke-width="1.5"></path><path d="M427.55 929.81L427.55 929.81" stroke="hsl(194.89999999999998, 96.3%, 55.6%)" stroke-width="1.5"></path><path d="M427.55 929.81L552.55 966.9" stroke="hsl(194.89999999999998, 96.3%, 55.6%)" stroke-width="1.5"></path><path d="M427.55 929.81L455.36 1071.78" stroke="hsl(194.89999999999998, 96.3%, 55.6%)" stroke-width="1.5"></path><path d="M455.36 1071.78L455.36 1071.78" stroke="hsl(194.89999999999998, 96.3%, 55.6%)" stroke-width="1.5"></path><path d="M455.36 1071.78L565.63 1071.46" stroke="hsl(194.89999999999998, 96.3%, 55.6%)" stroke-width="1.5"></path><path d="M455.36 1071.78L552.55 966.9" stroke="hsl(194.89999999999998, 96.3%, 55.6%)" stroke-width="1.5"></path><path d="M455.36 1071.78L581.75 842.68" stroke="hsl(194.89999999999998, 96.3%, 55.6%)" stroke-width="1.5"></path><path d="M540.47 -71.65L540.47 -71.65" stroke="hsl(194.89999999999998, 96.3%, 55.6%)" stroke-width="1.5"></path><path d="M540.47 -71.65L573.99 59.06" stroke="hsl(194.89999999999998, 96.3%, 55.6%)" stroke-width="1.5"></path><path d="M540.47 -71.65L410.33 31.95" stroke="hsl(194.89999999999998, 96.3%, 55.6%)" stroke-width="1.5"></path><path d="M540.47 -71.65L445.32 160.34" stroke="hsl(194.89999999999998, 96.3%, 55.6%)" stroke-width="1.5"></path><path d="M540.47 -71.65L586.24 302.28" stroke="hsl(194.89999999999998, 96.3%, 55.6%)" stroke-width="1.5"></path><path d="M540.47 -71.65L453.6 315.29" stroke="hsl(194.89999999999998, 96.3%, 55.6%)" stroke-width="1.5"></path><path d="M573.99 59.06L573.99 59.06" stroke="hsl(194.89999999999998, 96.3%, 55.6%)" stroke-width="1.5"></path><path d="M573.99 59.06L463.9 -43.79" stroke="hsl(194.89999999999998, 96.3%, 55.6%)" stroke-width="1.5"></path><path d="M573.99 59.06L410.33 31.95" stroke="hsl(194.89999999999998, 96.3%, 55.6%)" stroke-width="1.5"></path><path d="M573.99 59.06L586.24 302.28" stroke="hsl(194.89999999999998, 96.3%, 55.6%)" stroke-width="1.5"></path><path d="M586.24 302.28L586.24 302.28" stroke="hsl(194.89999999999998, 96.3%, 55.6%)" stroke-width="1.5"></path><path d="M586.24 302.28L587.06 437.76" stroke="hsl(194.89999999999998, 96.3%, 55.6%)" stroke-width="1.5"></path><path d="M586.24 302.28L410.38 432.79" stroke="hsl(194.89999999999998, 96.3%, 55.6%)" stroke-width="1.5"></path><path d="M587.06 437.76L587.06 437.76" stroke="hsl(194.89999999999998, 96.3%, 55.6%)" stroke-width="1.5"></path><path d="M587.06 437.76L547.26 571.97" stroke="hsl(194.89999999999998, 96.3%, 55.6%)" stroke-width="1.5"></path><path d="M587.06 437.76L410.38 432.79" stroke="hsl(194.89999999999998, 96.3%, 55.6%)" stroke-width="1.5"></path><path d="M547.26 571.97L547.26 571.97" stroke="hsl(194.89999999999998, 96.3%, 55.6%)" stroke-width="1.5"></path><path d="M547.26 571.97L539.17 691.97" stroke="hsl(194.89999999999998, 96.3%, 55.6%)" stroke-width="1.5"></path><path d="M539.17 691.97L539.17 691.97" stroke="hsl(194.89999999999998, 96.3%, 55.6%)" stroke-width="1.5"></path><path d="M581.75 842.68L581.75 842.68" stroke="hsl(194.89999999999998, 96.3%, 55.6%)" stroke-width="1.5"></path><path d="M581.75 842.68L552.55 966.9" stroke="hsl(194.89999999999998, 96.3%, 55.6%)" stroke-width="1.5"></path><path d="M581.75 842.68L539.17 691.97" stroke="hsl(194.89999999999998, 96.3%, 55.6%)" stroke-width="1.5"></path><path d="M581.75 842.68L427.55 929.81" stroke="hsl(194.89999999999998, 96.3%, 55.6%)" stroke-width="1.5"></path><path d="M581.75 842.68L430.48 710.18" stroke="hsl(194.89999999999998, 96.3%, 55.6%)" stroke-width="1.5"></path><path d="M552.55 966.9L552.55 966.9" stroke="hsl(194.89999999999998, 96.3%, 55.6%)" stroke-width="1.5"></path><path d="M552.55 966.9L565.63 1071.46" stroke="hsl(194.89999999999998, 96.3%, 55.6%)" stroke-width="1.5"></path><path d="M565.63 1071.46L565.63 1071.46" stroke="hsl(194.89999999999998, 96.3%, 55.6%)" stroke-width="1.5"></path><circle r="25" cx="-60.75" cy="943.13" fill="url(&quot;#SvgjsRadialGradient1023&quot;)"></circle><circle r="25" cx="195.8" cy="832.4" fill="url(&quot;#SvgjsRadialGradient1023&quot;)"></circle><circle r="25" cx="445.32" cy="160.34" fill="url(&quot;#SvgjsRadialGradient1023&quot;)"></circle><circle r="5" cx="-43.51" cy="833.72" fill="#82d1eb"></circle><circle r="5" cx="-77.6" cy="1089.65" fill="#82d1eb"></circle><circle r="5" cx="54.58" cy="803.33" fill="#82d1eb"></circle><circle r="5" cx="89.74" cy="939" fill="#82d1eb"></circle><circle r="5" cx="70.33" cy="1073.57" fill="#82d1eb"></circle><circle r="5" cx="193.82" cy="684.75" fill="#82d1eb"></circle><circle r="5" cx="207.39" cy="950.58" fill="#82d1eb"></circle><circle r="5" cx="328.11" cy="340.85" fill="#82d1eb"></circle><circle r="5" cx="306.07" cy="542.88" fill="#82d1eb"></circle><circle r="5" cx="303.01" cy="690.72" fill="#82d1eb"></circle><circle r="5" cx="318.64" cy="815.46" fill="#82d1eb"></circle><circle r="5" cx="306.4" cy="1057.35" fill="#82d1eb"></circle><circle r="5" cx="463.9" cy="-43.79" fill="#82d1eb"></circle><circle r="5" cx="410.33" cy="31.95" fill="#82d1eb"></circle><circle r="5" cx="453.6" cy="315.29" fill="#82d1eb"></circle><circle r="5" cx="410.38" cy="432.79" fill="#82d1eb"></circle><circle r="5" cx="453.83" cy="559.45" fill="#82d1eb"></circle><circle r="5" cx="430.48" cy="710.18" fill="#82d1eb"></circle><circle r="5" cx="457.66" cy="808.74" fill="#82d1eb"></circle><circle r="5" cx="427.55" cy="929.81" fill="#82d1eb"></circle><circle r="5" cx="455.36" cy="1071.78" fill="#82d1eb"></circle><circle r="5" cx="540.47" cy="-71.65" fill="#82d1eb"></circle><circle r="5" cx="573.99" cy="59.06" fill="#82d1eb"></circle><circle r="5" cx="586.24" cy="302.28" fill="#82d1eb"></circle><circle r="5" cx="587.06" cy="437.76" fill="#82d1eb"></circle><circle r="5" cx="547.26" cy="571.97" fill="#82d1eb"></circle><circle r="5" cx="539.17" cy="691.97" fill="#82d1eb"></circle><circle r="5" cx="581.75" cy="842.68" fill="#82d1eb"></circle><circle r="5" cx="552.55" cy="966.9" fill="#82d1eb"></circle><circle r="5" cx="565.63" cy="1071.46" fill="#82d1eb"></circle></g><defs><mask id="SvgjsMask1022"><rect width="440" height="1000" fill="#ffffff"></rect></mask><radialGradient id="SvgjsRadialGradient1023"><stop stop-color="#ffffff" offset="0.1"></stop><stop stop-color="rgba(4, 162, 214, 1)" offset="0.2"></stop><stop stop-color="rgba(4, 162, 214, 0)" offset="1"></stop></radialGradient></defs></svg>